<?xml version="1.0" encoding="UTF-8"?>
<svg id="Main" xmlns="http://www.w3.org/2000/svg" viewBox="0 0 512 512">
  <defs>
    <style>
      .cls-1 {
        fill: #ff5d1e;
        stroke-width: 0px;
      }
    </style>
  </defs>
  <ellipse id="Back_wheel" data-name="Back wheel" class="cls-1" cx="85.9" cy="421.93" rx="71.56" ry="34.02" transform="translate(-286.59 205.94) rotate(-48.39)"/>
  <ellipse id="Front_wheel" data-name="Front wheel" class="cls-1" cx="337.42" cy="421.93" rx="71.56" ry="34.02" transform="translate(-202.11 393.98) rotate(-48.39)"/>
  <path id="Sparkle" class="cls-1" d="m478.5,237.45c5.48,9.99-4.51,27.1-21.64,37.09-35.07,20.45-75.13,45.97-117.8,77.3-57.01,41.85-103.33,82.81-139.41,118-13.88,13.54-33.8,13.54-31.88,0,4.99-35.2,6.45-76.15-1.71-118-6.11-31.33-16.39-56.85-27.6-77.3-5.48-9.99,4.51-27.1,21.64-37.09,35.07-20.45,75.14-45.98,117.8-77.3,57-41.85,103.33-82.81,139.41-118,13.88-13.54,33.8-13.54,31.88,0-4.99,35.2-6.46,76.15,1.72,118,6.11,31.32,16.39,56.85,27.6,77.3Z"/>
  <path id="Base" class="cls-1" d="m124.42,282.24c-1.76-3.2-2.81-6.65-3.23-10.24H32v64h113.95c-5.18-19.08-12.38-37.1-21.52-53.76Z"/>
  <g id="Speed_lines" data-name="Speed lines">
    <path class="cls-1" d="m152.03,223.63c17.32-10.1,34.51-20.66,51.48-31.63H32v32h119.43c.2-.12.4-.25.61-.37Z"/>
    <path class="cls-1" d="m404.78,32H32v32h338.61c11.63-10.5,23.03-21.17,34.17-32Z"/>
    <path class="cls-1" d="m314.29,112H32v32h240.82c14.05-10.4,27.88-21.07,41.47-32Z"/>
  </g>
</svg>